Coordinates
version=1
nRows=8
nColumns=36
inDegrees=yes

Units are S.I. units (second, meters, Newtons, ...)
If the header above contains a line with 'inDegrees', this indicates whether rotational values are in degrees (yes) or radians (no).

endheader
time	pelvis_tilt	pelvis_list	pelvis_rotation	pelvis_tx	pelvis_ty	pelvis_tz	hip_flexion_r	hip_adduction_r	hip_rotation_r	knee_angle_r	knee_angle_r_beta	ankle_angle_r	subtalar_angle_r	mtp_angle_r	hip_flexion_l	hip_adduction_l	hip_rotation_l	knee_angle_l	knee_angle_l_beta	ankle_angle_l	subtalar_angle_l	mtp_angle_l	lumbar_extension	lumbar_bending	lumbar_rotation	arm_flex_r	arm_add_r	arm_rot_r	elbow_flex_r	pro_sup_r	arm_flex_l	arm_add_l	arm_rot_l	elbow_flex_l	pro_sup_l
      0.00000000	     -6.46842951	     -0.43660584	      0.27360432	     -0.91965509	      1.26725837	     -0.01522735	     11.94557942	      0.22007345	     -2.23703383	     10.26565081	      0.17916941	      4.06261006	    -15.94636192	     -5.49671651	     14.04473950	     -3.14893333	      2.47778399	     15.68081996	      0.27368194	      9.67678343	     -4.09809506	     -5.49671651	    -10.02229964	      2.07033922	      1.03465801	    -10.02578671	    -18.46487008	      3.33031082	     35.93547207	     74.08026459	    -12.00886723	    -12.82616646	     -2.14688924	     43.31613335	     78.78639133
      0.00416670	     -7.97874033	     -0.61501404	      0.09934006	     -0.91788970	      1.26833960	     -0.01463133	     14.17589922	      0.78374890	     -0.89321071	     11.80723941	      0.20607520	      6.75818390	    -15.72627961	     -5.59164912	     15.94367350	     -2.62747466	      4.65846662	     16.54787177	      0.28881485	     10.29610359	     -4.33061930	     -5.59164912	     -7.42886958	      2.18781360	      1.84641446	    -10.52729649	    -17.32673800	      2.73879294	     33.75721967	     74.46388881	    -12.30517714	    -11.23465797	     -4.20225453	     42.42840685	     78.96235958
      0.00833330	     -8.73519968	     -0.32324942	     -0.02117342	     -0.91941938	      1.26691353	     -0.01333423	     14.71898937	      0.70777589	     -1.00856880	     11.13255985	      0.19429982	      6.59504878	    -16.26189951	     -5.69296021	     16.84228058	     -2.38217881	      5.66227959	     16.71727297	      0.29177146	      9.93506055	     -5.70183827	     -5.69296021	     -6.39179859	      1.64157302	      2.24279051	    -11.16299794	    -16.98237925	      2.11915302	     33.65408621	     73.88622381	    -12.64742747	    -11.22459961	     -4.89188312	     43.07091090	     78.21861055
      0.01250000	     -8.30890510	     -0.22331509	      0.04056711	     -0.92015776	      1.26975430	     -0.01275156	     14.11051365	      0.67534642	     -1.10616268	     10.79577082	      0.18842175	      6.29070653	    -16.49541185	     -5.89219958	     16.26340112	     -2.17542248	      6.81056545	     16.45437887	      0.28718309	      9.49003484	     -7.13539348	     -5.89219958	     -6.87261260	      1.53255563	      2.47967826	    -11.19397842	    -16.80371118	      1.49657089	     33.58116717	     73.73832267	    -12.13177734	    -10.88303487	     -5.38580742	     42.92769877	     77.80321861
      0.01666670	     -8.13122900	     -0.14526076	      0.05271752	     -0.91904057	      1.27222469	     -0.01260591	     13.64485623	      0.69620797	     -1.01886425	     10.27043907	      0.17925298	      5.56024455	    -16.78932279	     -6.00516569	     15.93944978	     -2.03346655	      7.43547805	     16.20566633	      0.28284223	      9.00624489	     -8.07263235	     -6.00516569	     -7.21335782	      1.54573815	      2.69837343	    -11.06793539	    -16.60035991	      1.12718243	     33.66087307	     73.57899726	    -11.61702511	    -10.46503752	     -5.69329153	     42.70064114	     77.23527581
      0.02083330	     -7.52784583	     -0.04971679	     -0.02510490	     -0.91883191	      1.27332557	     -0.01221939	     12.84439596	      0.60011754	     -1.14706730	      9.95261120	      0.17370583	      4.94496076	    -17.15265511	     -6.42315694	     15.20500457	     -1.92576859	      7.80372535	     16.00345163	      0.27931292	      8.61353906	     -9.11460128	     -6.42315694	     -8.29292234	      1.52293894	      2.92351210	    -10.80800772	    -16.11023389	     -1.39822373	     34.04224472	     81.31135954	    -11.04729865	    -10.07184343	     -6.58984874	     42.50281900	     80.58626935
      0.02500000	     -7.27005352	     -0.01123669	     -0.02612068	     -0.91862384	      1.27189371	     -0.01175193	     12.47921443	      0.57283302	     -1.19999217	      9.76355498	      0.17040618	      4.34303146	    -17.78550065	     -6.63430722	     14.92218053	     -1.84107679	      8.17099830	     16.00882247	      0.27940666	      8.47143653	     -9.99314187	     -6.63430722	     -8.70199482	      1.50734693	      3.14128363	    -10.35080966	    -15.92635052	     -1.31335699	     33.66159238	     79.58181445	    -10.56531850	     -9.95186587	     -6.50634527	     42.02847643	     78.60570288
      0.02916670	     -7.02368835	      0.03103002	     -0.01075653	     -0.91804248	      1.27208363	     -0.01133408	     12.07158708	      0.59882836	     -0.91201720	      9.45440073	      0.16501042	      3.62678560	    -18.46611642	     -6.66666313	     14.63629033	     -1.75573421	      8.47144092	     16.02900447	      0.27975890	      8.23790227	    -10.55166929	     -6.66666313	     -9.10240523	      1.41498073	      3.21238421	     -9.98219002	    -15.67364993	     -1.13207495	     33.34139888	     79.01984928	    -10.20906681	     -9.95618215	     -6.40203641	     41.83455745	     77.78083312
